<?xml version="1.0" standalone="no"?>
<!DOCTYPE svg PUBLIC "-//W3C//DTD SVG 1.1//EN" "http://www.w3.org/Graphics/SVG/1.1/DTD/svg11.dtd" >
<svg xmlns="http://www.w3.org/2000/svg">
<metadata>
Created by FontPrep 20130207 at Sat Mar  8 16:40:50 2014
 By Mariusz Olownia
Copyright (c) University of Hamburg, 1986-2003. All rights reserved.
</metadata>
<defs>
<font id="388eb1bc19214998ca59821dffdb77a4" horiz-adv-x='1024' >
  <font-face 
    font-family="Hamnosysunicode"
    font-weight="400"
    font-stretch="normal"
    units-per-em="2048"
    panose-1="1 0 0 0 0 0 0 0 0 0"
    ascent="1638"
    descent="-410"
    bbox="-1202 -367 1403 1729"
    underline-thickness="102"
    underline-position="-102"
    unicode-range="U+0020-E0F1"
  />
<missing-glyph horiz-adv-x="741" 
d="M106 1516h560v-1164h-560v1164z" />
    <glyph glyph-name=".notdef" horiz-adv-x="741" 
d="M106 1516h560v-1164h-560v1164z" />
    <glyph glyph-name=".null" horiz-adv-x="0" 
 />
    <glyph glyph-name="nonmarkingreturn" horiz-adv-x="741" 
 />
    <glyph glyph-name="space" unicode=" " horiz-adv-x="741" 
 />
    <glyph glyph-name="space" unicode="&#xa0;" horiz-adv-x="741" 
 />
    <glyph glyph-name="exclam" unicode="!" horiz-adv-x="593" 
d="M233 184h119v-116h-119v116zM233 1253h119v-974h-119v974z" />
    <glyph glyph-name="comma" unicode="," horiz-adv-x="618" 
d="M143 184h246v-184l-246 -307h-123l123 307v184z" />
    <glyph glyph-name="period" unicode="." horiz-adv-x="329" 
d="M266 172q35 0 60.5 -25.5t25.5 -60.5t-25.5 -60.5t-60.5 -25.5t-60.5 25.5t-25.5 60.5t25.5 60.5t60.5 25.5z" />
    <glyph glyph-name="question" unicode="?" horiz-adv-x="894" 
d="M578 4h-146v172h146v-172zM561 358h-117q-2 125 19 207t92 156q90 86 180 174q94 101 94 201t-83.5 170.5t-227.5 70.5t-228.5 -93t-80.5 -234h-123q-14 190 111 312t325 122t318 -100.5t118 -266.5q0 -100 -65 -186q-35 -45 -141 -141t-148.5 -160t-42.5 -232z" />
    <glyph glyph-name="braceleft" unicode="{" horiz-adv-x="819" 
d="M281 109v397q0 113 -53.5 169t-209.5 87q156 31 209 87t54 169v397q0 188 137 258q111 55 383 56v-27q-145 -25 -203.5 -89.5t-58.5 -185.5v-378q1 -127 -55 -192t-224 -93v-4q168 -29 229 -98q49 -59 50 -187v-379q0 -119 58 -184.5t204 -87.5v-27q-272 0 -383 56
q-137 70 -137 256z" />
    <glyph glyph-name="bar" unicode="|" horiz-adv-x="819" 
d="M293 1729h237l-2 -2048h-237z" />
    <glyph glyph-name="braceright" unicode="}" horiz-adv-x="819" 
d="M18 -213v27q146 25 204 89t59 185v379q0 127 55 191t223 94v4q-168 29 -229 98q-49 59 -49 186v379q0 119 -58.5 184.5t-204.5 88.5v26q272 0 383 -55q137 -70 138 -256v-397q0 -113 53 -169t209 -87q-156 -31 -209 -87.5t-53 -168.5v-398q0 -188 -138 -258
q-111 -55 -383 -55z" />
    <glyph glyph-name="hamfist" unicode="&#xe000;" horiz-adv-x="1433" 
d="M61 407.5q0 -145.5 102.5 -248t248.5 -102.5h516q145 0 247.5 102.5t102.5 248t-102.5 248t-247.5 102.5h-516q-145 0 -248 -102.5t-103 -248zM412 2q-168 0 -287 119t-119 286.5t119 286.5t287 119h516q168 0 286.5 -119t118.5 -286.5t-118.5 -286.5t-286.5 -119h-516z
" />
    <glyph glyph-name="hamflathand" unicode="&#xe001;" horiz-adv-x="1433" 
d="M1178 256v399q0 188 -136.5 324.5t-325.5 136.5t-324.5 -136t-135.5 -325v-399q0 -78 57.5 -136.5t137.5 -58.5h532q78 0 136.5 58.5t58.5 136.5zM1239 256q0 -106 -74.5 -181t-181.5 -75h-532q-106 0 -181 75t-75 181v399q0 215 153.5 369t368.5 154t368.5 -154
t153.5 -369v-399z" />
    <glyph glyph-name="hamfinger2" unicode="&#xe002;" horiz-adv-x="1433" 
d="M451 451q-80 0 -137.5 -57.5t-57.5 -137.5t57.5 -137.5t137.5 -57.5h532q80 0 137.5 57.5t57.5 137.5t-57.5 137.5t-137.5 57.5h-532zM1065 1167q41 0 41 -61v-625q0 3 37 -27q96 -77 96 -191q0 -113 -74.5 -188t-181.5 -75h-532q-106 0 -181 75t-75 181t74.5 181
t181.5 75h573v594q0 61 41 61z" />
    <glyph glyph-name="hamfinger23" unicode="&#xe003;" horiz-adv-x="1433" 
d="M451 451q-80 0 -137.5 -57.5t-57.5 -137.5t57.5 -137.5t137.5 -57.5h532q80 0 137.5 57.5t57.5 137.5t-57.5 137.5t-137.5 57.5h-532zM1024 512v594q0 61 41 61t41 -61v-625q0 3 37 -27q96 -77 96 -191q0 -113 -74.5 -188t-181.5 -75h-532q-106 0 -181 75t-75 181
t74.5 181t181.5 75h354v594q0 61 41 61t41 -61v-594h137z" />
    <glyph glyph-name="hamfinger23spread" unicode="&#xe004;" horiz-adv-x="1433" 
d="M451 451q-80 0 -137.5 -57.5t-57.5 -137.5t57.5 -137.5t137.5 -57.5h532q80 0 137.5 57.5t57.5 137.5t-57.5 137.5t-137.5 57.5h-532zM1239 256q0 -106 -74.5 -181t-181.5 -75h-532q-104 0 -180 75t-76 181t75.5 181t180.5 75h354v594q0 61 41 61t41 -61v-594h137
l209 537q23 55 61 43t17 -72l-205 -539q133 -84 133 -225z" />
    <glyph glyph-name="hamfinger2345" unicode="&#xe005;" horiz-adv-x="1433" 
d="M983 451h-532q-80 0 -137.5 -57.5t-57.5 -137.5t57.5 -137.5t137.5 -57.5h532q80 0 137.5 57.5t57.5 137.5t-57.5 137.5t-137.5 57.5zM594 1169q41 0 45 -61l31 -596h135l31 594q4 61 45 61t37 -61l-31 -594h137l63 594q6 61 47.5 61t34.5 -61l-67 -625q2 3 40 -27
q97 -75 97 -190q0 -114 -74.5 -189t-181.5 -75h-532q-106 0 -181 75t-75 165t38 145t87 91t49 34l-64 596q-6 61 35 61t47 -61l64 -594h137l-31 596q-4 61 37 61z" />
    <glyph glyph-name="hampinch12" unicode="&#xe006;" horiz-adv-x="1433" 
d="M354 328l598 -267q266 18 266.5 266t-266.5 267zM1280 328q0 -205 -164 -287q-68 -35 -164 -41l-716 328l716 327q18 5 101 -15t143 -81q84 -86 84 -231z" />
    <glyph glyph-name="hampinchall" unicode="&#xe007;" horiz-adv-x="1433" 
d="M952 655q16 6 73 -7.5t105 -37.5t89 -78q0 104 -95 189q-59 53 -168 45q-193 -14 -583 -379zM1280 328q0 -205 -164 -287q-68 -35 -164 -41l-716 324q0 10 122 140t256 226q186 134 338 150q84 0 156 -33q152 -74 168 -275q4 -49 4 -204zM354 328l598 -267
q266 18 266.5 266t-266.5 267z" />
    <glyph glyph-name="hampinch12open" unicode="&#xe008;" horiz-adv-x="1433" 
d="M236 328l716 327q110 -7 160 -38q51 -32 107 -113q-21 247 -146 411q-174 223 -489 211v62q338 12 532 -230q139 -172 164 -376v-254q-7 -141 -95 -231q-89 -89 -233 -97zM354 328l598 -267q266 18 266.5 266t-266.5 267z" />
    <glyph glyph-name="hamcee12" unicode="&#xe009;" horiz-adv-x="1433" 
d="M375 61h577q109 0 188 79t79 187.5t-79 187.5t-188 79h-577v61h577q135 0 231.5 -96t96.5 -231t-96.5 -231.5t-231.5 -96.5h-577v61z" />
    <glyph glyph-name="hamceeall" unicode="&#xe00a;" horiz-adv-x="1433" 
d="M670 594q-92 0 -153.5 -54.5t-76.5 -129.5h766q-14 66 -89 125t-165 59h-282zM1219 328v20h-844q0 131 88 219t207 88h282q136 0 232 -96t96 -232t-97.5 -231.5t-230.5 -95.5h-577v61h577q109 0 188 79t79 188z" />
    <glyph glyph-name="hamceeopen" unicode="&#xe00b;" horiz-adv-x="1433" 
d="M580 1188q348 0 532 -230q168 -207 166 -444l-2 -186q0 -131 -96 -232q-57 -61 -102.5 -78.5t-129.5 -17.5h-512v61h512q125 0 194 79t68.5 187.5t-68.5 187.5t-194 79l-510 -2v61l510 2q170 1 266 -151q-12 283 -185 459t-449 163v62z" />
    <glyph glyph-name="hamthumboutmod" unicode="&#xe00c;" horiz-adv-x="307" 
d="M-393 61l74 66l421 416q33 33 60 12q14 -10 12 -33t-16 -30l-391 -392q-35 -35 -55 -46q-20 -10 -108 -34q-89 -24 -231 -20l2 51z" />
    <glyph glyph-name="hamthumbacrossmod" unicode="&#xe00d;" horiz-adv-x="0" 
d="M-225 141q-26 0 -76 13l-657 114q-25 4 -20 34t36 24l717 -125v-60z" />
    <glyph glyph-name="hamthumbopenmod" unicode="&#xe00e;" horiz-adv-x="0" 
d="M-420 61v-61l-510 -358q-18 -12 -42 -8t-24 27q0 24 33 46l510 354h33z" />
    <glyph glyph-name="hamfingerstraightmod" unicode="&#xe010;" horiz-adv-x="0" 
d="M-307 1536h-819v61h819v-61z" />
    <glyph glyph-name="hamfingerbendmod" unicode="&#xe011;" horiz-adv-x="0" 
d="M-1126 1352q0 117 122 181t287.5 63.5t287.5 -64.5t122 -180h-62q-29 88 -127 136t-221 48t-221 -48t-127 -136h-61z" />
    <glyph glyph-name="hamfingerhookmod" unicode="&#xe012;" horiz-adv-x="0" 
d="M-307 1290h-62v246h-696v-246h-61v307h819v-307z" />
    <glyph glyph-name="hamdoublebent" unicode="&#xe013;" horiz-adv-x="0" 
d="M-717 1536q-94 -49 -350 -184h-59l409 245l410 -245h-62z" />
    <glyph glyph-name="hamdoublehooked" unicode="&#xe014;" horiz-adv-x="0" 
d="M-717 1413q94 49 350 184h60l-410 -245l-409 245h61z" />
    <glyph glyph-name="hamextfingeru" unicode="&#xe020;" horiz-adv-x="921" 
d="M459 418l313 -398l-313 189l-309 -189z" />
    <glyph glyph-name="hamextfingerur" unicode="&#xe021;" horiz-adv-x="921" 
d="M711 547l-60 -502l-88 354l-352 86z" />
    <glyph glyph-name="hamextfingerr" unicode="&#xe022;" horiz-adv-x="921" 
d="M659 336l-397 -313l189 313l-189 309z" />
    <glyph glyph-name="hamextfingerdr" unicode="&#xe023;" horiz-adv-x="921" 
d="M711 47l-502 59l354 89l86 352z" />
    <glyph glyph-name="hamextfingerd" unicode="&#xe024;" horiz-adv-x="921" 
d="M463 25l-313 397l313 -189l309 189z" />
    <glyph glyph-name="hamextfingerdl" unicode="&#xe025;" horiz-adv-x="921" 
d="M211 25l59 501l88 -354l353 -86z" />
    <glyph glyph-name="hamextfingerl" unicode="&#xe026;" horiz-adv-x="921" 
d="M262 334l397 313l-188 -313l188 -309z" />
    <glyph glyph-name="hamextfingerul" unicode="&#xe027;" horiz-adv-x="921" 
d="M209 522l502 -59l-355 -88l-86 -352z" />
    <glyph glyph-name="hamextfingerol" unicode="&#xe028;" horiz-adv-x="921" 
d="M29 61h864v-61h-864v61zM180 633l502 -60l-354 -88l-86 -352z" />
    <glyph glyph-name="hamextfingero" unicode="&#xe029;" horiz-adv-x="921" 
d="M63 61h795v-61h-795v61zM461 541l313 -398l-313 189l-309 -189z" />
    <glyph glyph-name="hamextfingeror" unicode="&#xe02a;" horiz-adv-x="921" 
d="M31 61h860v-61h-860v61zM739 631l-59 -502l-88 354l-352 86z" />
    <glyph glyph-name="hamextfingeril" unicode="&#xe02b;" horiz-adv-x="921" 
d="M180 137l60 502l88 -354l352 -86zM891 0h-860v61h860v-61z" />
    <glyph glyph-name="hamextfingeri" unicode="&#xe02c;" horiz-adv-x="921" 
d="M455 102l-310 398l310 -189l313 189zM860 0h-799v61h799v-61z" />
    <glyph glyph-name="hamextfingerir" unicode="&#xe02d;" horiz-adv-x="921" 
d="M739 131l-499 62l352 86l88 354zM891 0h-860v61h860v-61z" />
    <glyph glyph-name="hamextfingerui" unicode="&#xe02e;" horiz-adv-x="921" 
d="M174 633l502 -60l-354 -88l-86 -352zM41 0v799h61v-799h-61z" />
    <glyph glyph-name="hamextfingerdi" unicode="&#xe02f;" horiz-adv-x="921" 
d="M174 74l59 501l89 -354l352 -86zM41 799h61v-799h-61v799z" />
    <glyph glyph-name="hamextfingerdo" unicode="&#xe030;" horiz-adv-x="921" 
d="M731 94l-502 60l355 88l86 352zM41 819h61v-819h-61v819z" />
    <glyph glyph-name="hamextfingeruo" unicode="&#xe031;" horiz-adv-x="921" 
d="M733 631l-59 -502l-88 354l-353 86zM41 0v799h61v-799h-61z" />
    <glyph glyph-name="hampalmu" unicode="&#xe038;" horiz-adv-x="921" 
d="M786 254q0 26 -116 52t-266 26q-152 0 -252 -27t-99 -51q0 -80 111.5 -135.5t269.5 -55.5q158 -1 255 59t97 132zM420 485q168 0 287.5 -67.5t119.5 -163.5t-119.5 -163.5t-287.5 -67.5t-288 67.5t-120 163.5t120 163.5t288 67.5z" />
    <glyph glyph-name="hampalmur" unicode="&#xe039;" horiz-adv-x="921" 
d="M213 625q-8 0 -12 -4q-33 -33 -33 -89q0 -150 157.5 -307t301.5 -157q61 0 94 32q4 4 4 11q1 37 -61 129t-148 176q-211 209 -303 209zM793 190q0 -76 -43 -118.5t-119 -42.5q-166 0 -334 168t-168 333q0 76 43 119t119 43q166 0 334 -168t168 -334z" />
    <glyph glyph-name="hampalmr" unicode="&#xe03a;" horiz-adv-x="921" 
d="M539 438q0 152 -27 251t-51 99q-80 0 -135.5 -111t-55.5 -269t60 -256t131 -97q27 0 52.5 115.5t25.5 267.5zM692 422q0 -168 -67.5 -288t-163.5 -120t-164 120t-68 288t68 287.5t164 119.5t163.5 -119.5t67.5 -287.5z" />
    <glyph glyph-name="hampalmdr" unicode="&#xe03b;" horiz-adv-x="921" 
d="M725 586q0 8 -4 12q-33 33 -88 33q-150 0 -307.5 -158t-157.5 -301q0 -61 33 -94q4 -4 10 -4q37 0 129 62t176 147q209 211 209 303zM291 6q-76 0 -119 43t-43 119q0 166 168 334t334 168q76 0 119 -43t43 -119q0 -166 -168 -334t-334 -168z" />
    <glyph glyph-name="hampalmud" unicode="&#xe03c;" horiz-adv-x="921" 
d="M478 176q152 0 250 27q99 27 99 51q0 80 -111.5 135t-269.5 55t-254 -59q-98 -59 -98 -131q0 -27 116 -52.5t268 -25.5zM461 23q-168 0 -288 67.5t-120 163.5t120 163.5t288 67.5t287.5 -67.5t119.5 -163.5t-119.5 -163.5t-287.5 -67.5z" />
    <glyph glyph-name="hampalmdl" unicode="&#xe03d;" horiz-adv-x="921" 
d="M754 203q0 150 -158 307.5t-301 157.5q-61 0 -94 -33q-4 -4 -4 -10q-1 -37 61 -129t148 -177q211 -209 303 -208q8 0 12 4q33 33 33 88zM129 545q0 76 43 119t119 43q166 0 334 -168t168 -334q0 -76 -43 -119t-119 -43q-166 0 -334 168t-168 334z" />
    <glyph glyph-name="hampalml" unicode="&#xe03e;" horiz-adv-x="921" 
d="M461 795q-27 0 -53 -116q-26 -115 -25 -267q0 -152 27 -251t51 -100q80 0 135 111.5t55 269.5t-59 256t-131 97zM229 428q0 168 68 288t164 120t163.5 -120t67.5 -288t-67.5 -288t-163.5 -120t-164 120t-68 288z" />
    <glyph glyph-name="hampalmul" unicode="&#xe03f;" horiz-adv-x="921" 
d="M197 100q0 -8 4 -12q33 -33 88 -33q150 0 307.5 158t157.5 301q0 61 -33 94q-4 4 -10 4q-37 0 -129 -62t-176 -147q-209 -211 -209 -303zM631 680q76 0 119 -43t43 -119q0 -166 -168 -334t-334 -168q-76 0 -119 43t-43 119q0 166 168 334t334 168z" />
    <glyph glyph-name="hamhead" unicode="&#xe040;" horiz-adv-x="1433" 
d="M1239 522q0 -215 -153.5 -368.5t-368.5 -153.5t-368.5 153.5t-153.5 368.5v185q0 215 153.5 368.5t368.5 153.5t368.5 -153.5t153.5 -368.5v-185zM1178 707q0 190 -135.5 325t-326 135t-325.5 -135t-135 -325v-185q0 -190 135 -325.5t325.5 -135.5t326 135.5t135.5 325.5
v185z" />
    <glyph glyph-name="hamheadtop" unicode="&#xe041;" horiz-adv-x="1433" 
d="M317 1290h820v-61h-420q215 0 368.5 -153.5t153.5 -368.5v-185q0 -215 -153.5 -368.5t-368.5 -153.5t-368.5 153.5t-153.5 368.5v185q0 215 153.5 368.5t368.5 153.5h-400v61zM1178 707q0 190 -135.5 325t-326 135t-325.5 -135t-135 -325v-185q0 -190 135 -325.5
t325.5 -135.5t326 135.5t135.5 325.5v185z" />
    <glyph glyph-name="hamforehead" unicode="&#xe042;" horiz-adv-x="1433" 
d="M1014 737h-594q-60 0 -122 -61t-62 -123v-307h-62v307q0 98 74 172t172 74h594q98 0 172 -74t74 -172v-307h-62v307q0 64 -60 124t-124 60z" />
    <glyph glyph-name="hameyebrows" unicode="&#xe043;" horiz-adv-x="1433" 
d="M1096 594q-188 0 -267 -184h-225q-78 184 -266 184q-115 0 -198 -59.5t-109 -165.5q14 119 99 196.5t208 89.5q209 23 307 -184h143q98 207 308 184q123 -12 208 -90t99 -196q-27 106 -110 165.5t-197 59.5z" />
    <glyph glyph-name="hameyes" unicode="&#xe044;" horiz-adv-x="1433" 
d="M1078 276q96 0 168 50t71.5 134.5t-72.5 134.5t-168 50t-168 -50t-71.5 -134.5t72.5 -134.5t168 -50zM358 276q96 0 168 50t72 134.5t-72 134.5t-168 50t-168 -50t-72 -134.5t72 -134.5t168 -50zM1372 460q0 -104 -87 -168t-208 -71q-152 -8 -266 121q-10 10 -39 74
q-18 45 -54 45t-54 -45q-29 -63 -37 -74q-117 -129 -269 -121q-118 6 -206 71t-88 168.5t88 167.5t206 72q66 4 195 -45q21 -10 73 -47t92 -37t92 37t75 47q129 49 192 45q121 -8 208 -72t87 -168z" />
    <glyph glyph-name="hamnose" unicode="&#xe045;" horiz-adv-x="1433" 
d="M686 1188h62v-543q68 -2 96 -11t78 -65q20 -23 34 -113t14 -160t-9 -71q-33 -2 -40.5 80t-13.5 164q-16 94 -73 111q-29 8 -46 -2q-34 -20 -36 -186t-37 -167q-35 0 -37 166t-33 187q-12 6 -43 2t-56.5 -49.5t-30.5 -176.5t-42 -129q-10 0 -10 70t14 161t35 113
q50 55 78 65t96 11v543z" />
    <glyph glyph-name="hamnostrils" unicode="&#xe046;" horiz-adv-x="1433" 
d="M1001 63h-569v76h569v-76zM709 225q-37 0 -39 166t-33 187q-12 6 -43 2t-56.5 -49.5t-30.5 -176.5t-42 -129q-10 0 -10 70t14 161t35 113q50 55 78 65t96 11v543h61v-543q67 -2 95 -11t79 -65q21 -23 35 -113t14 -161q0 -70 -10 -70q-33 -2 -40 80t-13 164
q-16 94 -74 111q-29 8 -45 -2q-33 -20 -36 -186t-35 -167z" />
    <glyph glyph-name="hamear" unicode="&#xe047;" horiz-adv-x="1433" 
d="M395 1092q0 158 137 249q70 47 154 48q135 0 243 -108q107 -109 107 -219t-205 -382q-68 -88 -100.5 -195.5t-44.5 -124.5q-33 -49 -127 -63q-55 -8 -90 48q-35 57 -35 117t22 108t26 81t16 56l82 10q-6 -27 -16 -69t-48 -103q-14 -23 -14 -72q0 -115 57 -115
q51 0 125 174t90 195q182 231 182 348q0 80 -80 172t-184 92t-170.5 -81.5t-66.5 -184.5q0 -55 24 -100l-57 -4q-27 59 -27 123z" />
    <glyph glyph-name="hamearlobe" unicode="&#xe048;" horiz-adv-x="1433" 
d="M27 158h585v-97h-585v97zM57 462q0 60 22 108q21 48 25 81t17 56l82 10q-6 -27 -10 -53q-16 -59 -54 -119q-14 -23 -14 -72q0 -115 57 -115q51 0 125 174t90 195q182 231 183 348q0 80 -80 172t-184 92t-171 -81.5t-67 -184.5q0 -55 24 -100l-57 -4q-27 59 -27 123
q0 158 138 249q70 47 153 48q135 -1 243 -109t108 -218t-205 -382q-68 -88 -100.5 -195.5t-45.5 -124.5q-33 -49 -127 -63q-55 -8 -90 48q-35 57 -35 117z" />
    <glyph glyph-name="hamcheek" unicode="&#xe049;" horiz-adv-x="1433" 
d="M516 117q-31 0 -61 6q209 -16 340 168t120 416q-8 182 -266 276q131 77 143 227t-94 244h64q88 -109 82 -241t-92 -230q223 -114 225 -276q4 -221 -130 -405t-331 -185z" />
    <glyph glyph-name="hamlips" unicode="&#xe04a;" horiz-adv-x="1433" 
d="M184 266q139 -84 255 -117.5t279 -36.5t285.5 29.5t266.5 114.5q-162 100 -348 102q-37 0 -99.5 -17t-138.5 -10t-107 17t-65 10q-174 -4 -328 -92zM716.5 41q-190.5 0 -329.5 51t-285 174q131 168 385 168q41 0 78 -3t78 -33.5t73 -28.5t72.5 30.5t78.5 31.5t79 3
q254 0 385 -168q-145 -123 -284.5 -174t-330 -51z" />
    <glyph glyph-name="hamtongue" unicode="&#xe04b;" horiz-adv-x="1433" 
d="M430 226q0 17 86 30.5t207 13.5t207 -13t86 -31t-86 -31t-207 -13t-207 13.5t-86 30.5zM184 266q139 -84 255 -117.5t279 -36.5t285.5 29.5t266.5 114.5q-162 100 -348 102q-37 0 -99.5 -17t-138.5 -10t-107 17t-65 10q-174 -4 -328 -92zM716.5 41q-190.5 0 -329.5 51
t-285 174q131 168 385 168q41 0 78 -3t78 -33.5t73 -28.5t72.5 30.5t78.5 31.5t79 3q254 0 385 -168q-145 -123 -284.5 -174t-330 -51z" />
    <glyph glyph-name="hamteeth" unicode="&#xe04c;" horiz-adv-x="1433" 
d="M716.5 41q-190.5 0 -329.5 51t-285 174q131 168 385 168q41 0 78 -3t78 -33.5t73 -28.5t72.5 30.5t78.5 31.5t79 3q254 0 385 -168q-145 -123 -284.5 -174t-330 -51zM401 233v-64q42 -13 86 -24v88h-86zM383 233h-140q67 -34 140 -58v58zM506 233v-92q48 -10 98 -17v109
h-98zM1069 233v-69q58 24 141 69h-141zM1051 233h-88v-102q51 11 88 26v76zM733 233v-120h25q40 -1 78 1v119h-103zM715 233h-92v-111q45 -5 92 -8v119zM854 233v-118q49 4 92 13v105h-92zM401 260h86v95q-45 -4 -86 -11v-84zM383 260v80q-110 -23 -199 -74q5 -3 11 -6h188z
M506 260h98v94q-29 4 -52 4t-46 -2v-96zM1069 260h188q5 3 11 6q-92 58 -131 70t-68 16v-92zM1051 260v94q-39 4 -88 4v-98h88zM733 260h103v78q-47 -10 -68 -10t-35 1v-69zM715 260v72q-25 4 -51 10t-41 9v-91h92zM854 260h92v98q-36 -2 -63 -9t-29 -7v-82z" />
    <glyph glyph-name="hamchin" unicode="&#xe04d;" horiz-adv-x="1433" 
d="M718 123q-333 0 -466 266q-57 111 -68 266h62q0 -37 40 -151t126 -199q123 -121 305 -121q256 0 389 236q55 98 82 235h61q-10 -156 -65 -266q-133 -266 -466 -266z" />
    <glyph glyph-name="hamunderchin" unicode="&#xe04e;" horiz-adv-x="1433" 
d="M1126 61v-61h-819v61h410q-332 0 -465 267q-57 111 -68 266h62q0 -36 40 -150t126 -200q123 -121 305 -121q256 0 389 235q55 98 82 236h61q-10 -156 -65 -266q-133 -266 -467 -267h409z" />
    <glyph glyph-name="hamneck" unicode="&#xe04f;" horiz-adv-x="1433" 
d="M932 594v-533h246v-61h-308v594q8 54 43 124t80 101l88 82h97l-103 -98q-32 -18 -104 -119q-20 -20 -30 -54q-9 -34 -9 -36zM563 0h-307v61h246v533q-4 26 -20 56t-18.5 36t-46.5 57t-59 60l-102 98h96l88 -82q45 -31 80 -101t43 -124v-594z" />
    <glyph glyph-name="hamshouldertop" unicode="&#xe050;" horiz-adv-x="1433" 
d="M1235 922h-1040l161 -564h717zM1391 1229l-267 -932h-819l-266 932h1352zM47 1343v101h1346v-101h-1346z" />
    <glyph glyph-name="hamshoulders" unicode="&#xe051;" horiz-adv-x="1433" 
d="M1237 922h-1040l161 -564h717zM307 297l-266 932h1352l-267 -932h-819z" />
    <glyph glyph-name="hamchest" unicode="&#xe052;" horiz-adv-x="1433" 
d="M209 922h1016l73 245h-1163zM1145 614h-856l69 -256h717zM307 297l-266 932h1352l-267 -932h-819z" />
    <glyph glyph-name="hamstomach" unicode="&#xe053;" horiz-adv-x="1433" 
d="M289 604h866l145 563h-1173zM307 297l-266 932h1352l-267 -932h-819z" />
    <glyph glyph-name="hambelowstomach" unicode="&#xe054;" horiz-adv-x="1433" 
d="M289 604h866l145 563h-1173zM1126 174v-174h-819v174h819zM307 297l-266 932h1352l-267 -932h-819z" />
    <glyph glyph-name="hamlrbeside" unicode="&#xe058;" horiz-adv-x="573" 
d="M164 553h246v246h-246v-246zM102 860h369v-368h-369v368z" />
    <glyph glyph-name="hamlrat" unicode="&#xe059;" horiz-adv-x="573" 
d="M102 862h369v-368h-369v368z" />
    <glyph glyph-name="hamcoreftag" unicode="&#xe05a;" horiz-adv-x="0" 
d="M-324 326v944h-757v-944h757zM-260 258h-889v1079h889v-1079z" />
    <glyph glyph-name="hamcorefref" unicode="&#xe05b;" horiz-adv-x="0" 
d="M-244 717q0 -199 -141 -339t-338 -140t-338 140t-141 339v168q0 197 141 338t338 141t338 -141.5t141 -337.5v-168zM-301 885q0 174 -124 298t-298 124t-298 -124t-124 -298v-168q0 -176 124 -299t298 -123t298 123t124 299v168z" />
    <glyph glyph-name="hamneutralspace" unicode="&#xe05f;" horiz-adv-x="1433" 
d="M698 1372q-254 0 -404 -170t-150 -401t137 -393l825 825q-154 139 -408 139zM1286 796q0 230 -137 394l-825 -825q154 -139 406 -139t413 177q143 163 143 393zM1356 803q0 -258 -162 -438q-178 -201 -479 -201q-258 0 -434 155l-158 -155l-43 43l158 158
q-160 176 -160 433t160 437q176 199 468 199t443 -156l158 156l43 -43l-158 -158q164 -172 164 -430z" />
    <glyph glyph-name="hamupperarm" unicode="&#xe060;" horiz-adv-x="1433" 
d="M625 1188q78 0 131 -47t53 -137v-512q0 -70 39 -108t139 -97q23 -13 23 -23t-25 -10q-80 0 -127 49q-31 25 -61 51q-49 53 -49 138v512q-8 37 -39 92q-20 18 -84 30h-205v62h205z" />
    <glyph glyph-name="hamelbow" unicode="&#xe061;" horiz-adv-x="1433" 
d="M524 369q0 -90 37 -127q57 -57 86 -58h553v-61h-553q-53 0 -118.5 65.5t-65.5 180.5v573q0 168 -184 184v62q82 -25 180 -66q66 -66 65 -180v-573zM295 69q0 28 20.5 47t46.5 19q59 0 68 -67q2 -27 -18.5 -47.5t-48.5 -20.5t-48 20.5t-20 48.5z" />
    <glyph glyph-name="hamelbowinside" unicode="&#xe062;" horiz-adv-x="1433" 
d="M537 942v-573q0 -84 50 -134t72 -51h553v-61h-553q-53 0 -118.5 65.5t-65.5 180.5v573q0 76 -57 133q-35 35 -127 51v62q82 -25 180 -66q66 -66 66 -180zM696 392q0 28 20.5 47.5t47.5 19.5q59 0 67 -68q2 -27 -18 -47t-48 -20t-48.5 20t-20.5 48z" />
    <glyph glyph-name="hamlowerarm" unicode="&#xe063;" horiz-adv-x="1433" 
d="M422 451h516q49 -1 190 -49t142 -78q0 -10 -62 0t-139 38q-76 28 -131 27h-512q-86 0 -135 50t-49 134v205h61v-207q-2 -51 28.5 -85.5t90.5 -34.5z" />
    <glyph glyph-name="hamwristback" unicode="&#xe064;" horiz-adv-x="1433" 
d="M315 451v61h594q84 0 145.5 -69.5t67.5 -170.5q10 -182 -35 -182q-35 0 -24.5 98.5t-30.5 180.5t-123 82h-594z" />
    <glyph glyph-name="hamwristpulse" unicode="&#xe065;" horiz-adv-x="1433" 
d="M297 430h594q86 0 130 84t37 183t19 100q37 0 27 -189q-6 -100 -67.5 -169.5t-145.5 -69.5h-594v61z" />
    <glyph glyph-name="hamthumbball" unicode="&#xe066;" horiz-adv-x="1433" 
d="M1318 477q3 0 5 -16q12 -94 -82 -193q-59 -61 -115 -88q-162 -82 -301 -82q-27 0 -53 4q-123 16 -227 328h-389v62h385q4 55 47 88.5t99 30.5t93 -46t33 -97t-41 -88t-90 -34q27 -170 129 -172q185 -2 285 68t160 153q60 82 62 82z" />
    <glyph glyph-name="hampalm" unicode="&#xe067;" horiz-adv-x="1433" 
d="M590 492q30 0 60 -110t38 -126q35 -82 92 -82q188 0 286 70t158 151q60 82 63 82t5 -16q12 -94 -82 -193q-59 -61 -114 -88q-162 -82 -301 -82q-27 0 -54 4q-123 16 -176 328h-440v62h465z" />
    <glyph glyph-name="hamhandback" unicode="&#xe068;" horiz-adv-x="1433" 
d="M621 369h-465v61h419q20 90 50 158q63 160 147 170q27 4 53 4q139 0 301 -82q55 -27 115 -88q94 -98 82 -193q-2 -16 -6 -16q-61 -1 -124 107t-101 131q-115 66 -281 65q-57 0 -92 -82q-9 -16 -39 -126t-59 -109z" />
    <glyph glyph-name="hamthumbside" unicode="&#xe069;" horiz-adv-x="1433" 
d="M686 1188v-942h-61v854l-234 -232l-43 43l275 277h63zM922 246h-62v942h62v-942z" />
    <glyph glyph-name="hampinkyside" unicode="&#xe06a;" horiz-adv-x="1433" 
d="M408 1167h489v-49h-434v-334q106 45 190 45q127 0 207 -79.5t80 -205.5t-82 -210t-210 -84t-283 63l18 47q137 -55 247 -55t180.5 61.5t70.5 169.5t-66.5 174t-177.5 66t-199 -69l-30 16v444zM1071 246h-61v942h61v-942z" />
    <glyph glyph-name="hamthumb" unicode="&#xe070;" horiz-adv-x="1126" 
d="M508 1196v-754h-49v684l-187 -186l-34 35l219 221h51z" />
    <glyph glyph-name="hamindexfinger" unicode="&#xe071;" horiz-adv-x="1126" 
d="M653 489v-47h-508v47q10 49 19 99q37 100 137 151q104 45 209 90q106 59 95 145t-69.5 129.5t-136.5 39.5q-166 -10 -204 -160h-50q55 213 254 213q104 0 180 -71t76 -169t-112 -165q-10 -6 -221 -101q-94 -41 -125 -201h456z" />
    <glyph glyph-name="hammiddlefinger" unicode="&#xe072;" horiz-adv-x="1126" 
d="M358 823v41q84 0 132.5 41t48.5 107t-45 103.5t-120 37.5t-159 -63l-22 34q111 74 190.5 74t141 -49t61.5 -129q0 -115 -109 -166q145 -43 146 -195q0 -96 -70 -154.5t-154 -58.5t-221 58l17 39q219 -107 299.5 -32t80.5 153t-52 118t-132 41h-33z" />
    <glyph glyph-name="hamringfinger" unicode="&#xe073;" horiz-adv-x="1126" 
d="M510 705v362l-248 -362h248zM559 442h-49v213h-344l393 574v-524l111 -3v-43l-111 -4v-213z" />
    <glyph glyph-name="hampinky" unicode="&#xe074;" horiz-adv-x="1126" 
d="M205 1180h391v-39h-348v-269q86 37 170 37t148.5 -63.5t64.5 -164.5t-65.5 -168t-167.5 -67t-228 50l14 39q231 -95 315.5 -21t84.5 161t-53.5 139t-142.5 52t-159 -55l-24 12v357z" />
    <glyph glyph-name="hamfingertip" unicode="&#xe075;" horiz-adv-x="819" 
d="M410 1188l184 -184h-369zM287 61h245v799h-245v-799zM594 0h-369v922h369v-922z" />
    <glyph glyph-name="hamfingernail" unicode="&#xe076;" horiz-adv-x="819" 
d="M225 984q0 -77 54.5 -131t129.5 -54t131 61.5t54 131.5t-55.5 122.5t-129 52.5t-130 -53t-54.5 -130zM225 61h369v754q-76 -78 -184.5 -78t-184.5 78v-754zM164 983q0 246 245.5 246t245.5 -246v-983h-491v983z" />
    <glyph glyph-name="hamfingerpad" unicode="&#xe077;" horiz-adv-x="819" 
d="M225 61h369v754q-76 -78 -184.5 -78t-184.5 78v-754zM164 983q0 246 245.5 246t245.5 -246v-983h-491v983z" />
    <glyph glyph-name="hamfingermidjoint" unicode="&#xe078;" horiz-adv-x="819" 
d="M594 983q0 78 -54 131t-130 53t-130.5 -53t-54.5 -131v-256q80 72 184.5 72t184.5 -72v256zM225 61h369v441q-80 -72 -184.5 -72t-184.5 72v-441zM164 983q0 246 245.5 246t245.5 -246v-983h-491v983z" />
    <glyph glyph-name="hamfingerbase" unicode="&#xe079;" horiz-adv-x="819" 
d="M616 123v-123h-368v123h368zM309 307h246v727h-246v-727zM616 246h-368v819l184 184l184 -184v-819z" />
    <glyph glyph-name="hamfingerside" unicode="&#xe07a;" horiz-adv-x="819" 
d="M225 61h185v922q0 39 -27 65.5t-65.5 26.5t-65.5 -26.5t-27 -65.5v-922zM164 983q0 246 245.5 246t245.5 -246v-983h-491v983z" />
    <glyph glyph-name="hamwristtopulse" unicode="&#xe07c;" 
d="M915 1434v-246h289l-319 -320l-320 320h289v153h-829v93h890z" />
    <glyph glyph-name="hamwristtoback" unicode="&#xe07d;" 
d="M915 1032h-890v62h829v184h-289l320 319l319 -319h-289v-246z" />
    <glyph glyph-name="hamwristtothumb" unicode="&#xe07e;" 
d="M897 1309v-707h-61v645h-185v-289l-319 320l319 319v-288h246z" />
    <glyph glyph-name="hamwristtopinky" unicode="&#xe07f;" 
d="M332 1309h246v288l319 -319l-319 -320v289h-185v-645h-61v707z" />
    <glyph glyph-name="hammoveu" unicode="&#xe080;" 
d="M645 731h-61v547h-289l319 319l320 -319h-289v-547z" />
    <glyph glyph-name="hammoveur" unicode="&#xe081;" 
d="M932 1597v-450l-203 203l-387 -387l-45 45l387 387l-203 202h451z" />
    <glyph glyph-name="hammover" unicode="&#xe082;" 
d="M182 1247v62h547v288l320 -319l-320 -320v289h-547z" />
    <glyph glyph-name="hammovedr" unicode="&#xe083;" 
d="M932 963h-451l203 202l-387 387l45 45l387 -387l203 203v-450z" />
    <glyph glyph-name="hammoved" unicode="&#xe084;" 
d="M645 1597v-546h289l-320 -320l-319 320h289v546h61z" />
    <glyph glyph-name="hammoveudl" unicode="&#xe085;" 
d="M303 963v450l203 -203l387 387l45 -45l-387 -387l203 -202h-451z" />
    <glyph glyph-name="hammovel" unicode="&#xe086;" 
d="M1034 1309v-62h-547v-289l-319 320l319 319v-288h547z" />
    <glyph glyph-name="hammoveul" unicode="&#xe087;" 
d="M299 1597h451l-203 -202l387 -387l-45 -45l-387 387l-203 -203v450z" />
    <glyph glyph-name="hammoveol" unicode="&#xe088;" 
d="M1137 758v-62h-922v62h561l-481 483l-203 -203v451h451l-203 -203l530 -528h267z" />
    <glyph glyph-name="hammoveo" unicode="&#xe089;" 
d="M1075 758v-62h-921v62h430v520h-289l319 319l320 -319h-289v-520h430z" />
    <glyph glyph-name="hammoveor" unicode="&#xe08a;" 
d="M1137 1489v-451l-203 203l-481 -483h561v-62h-922v62h266l531 528l-203 203h451z" />
    <glyph glyph-name="hammoveil" unicode="&#xe08b;" 
d="M287 942v451l202 -203l388 387l45 -45l-387 -387l202 -203h-450zM1075 758v-62h-921v62h921z" />
    <glyph glyph-name="hammovei" unicode="&#xe08c;" 
d="M584 1597h61v-522h289l-320 -317h461v-62h-921v62h460l-319 317h289v522z" />
    <glyph glyph-name="hammoveir" unicode="&#xe08d;" 
d="M1075 758v-62h-921v62h921zM942 942h-450l202 203l-387 387l45 45l387 -387l203 203v-451z" />
    <glyph glyph-name="hammoveui" unicode="&#xe08e;" 
d="M164 676h-62v921h62v-921zM348 1466h451l-203 -202l387 -387l-45 -46l-387 388l-203 -203v450z" />
    <glyph glyph-name="hammovedi" unicode="&#xe08f;" 
d="M225 676h-61v921h61v-921zM348 799v450l203 -202l387 387l45 -45l-387 -388l203 -202h-451z" />
    <glyph glyph-name="hammovedo" unicode="&#xe090;" 
d="M983 797h-451l203 202l-407 410v-733h-62v921h62v-100l452 -453l203 203v-450z" />
    <glyph glyph-name="hammoveuo" unicode="&#xe091;" 
d="M266 676h-61v921h61v-792l469 469l-203 203h451v-451l-203 203l-514 -514v-39z" />
    <glyph glyph-name="hamcircleo" unicode="&#xe092;" 
d="M1155 1059q0 -225 -143 -379q-154 -160 -403 -158t-391 162t-142 377t142 377t396 159q176 0 306 -84l137 132v-310h-318l138 133q-127 70 -263 68q-225 -4 -353 -146t-128 -332q0 -188 126 -328t344 -146q219 -6 355 134t136 341h61z" />
    <glyph glyph-name="hamcirclei" unicode="&#xe093;" 
d="M76 1059h61q0 -201 136 -341t354 -134q219 6 345 145t126 329t-128 332t-354 146q-135 2 -262 -68l138 -133h-318v310l137 -132q131 84 305 84q254 1 396 -159t142 -377t-142 -377t-391 -162t-397 155t-148 382z" />
    <glyph glyph-name="hamcircled" unicode="&#xe094;" 
d="M1155 461h-1077v61h536q-254 2 -396 162t-142 377t142 377t396 159q164 0 304 -86l129 131v-307l-304 2l131 127q-125 74 -260 72q-225 -4 -353 -146t-128 -332q0 -188 126 -328t344 -146t354 134t137 341h61q0 -225 -143 -379q-150 -156 -385 -158h528v-61z" />
    <glyph glyph-name="hamcircleu" unicode="&#xe095;" 
d="M1163 461h-1077v61h528q-236 2 -382 157t-146 380h61q0 -201 136 -338q137 -143 355 -137t344 145t126 329t-128 332t-353 146q-135 2 -260 -72l131 -127l-303 -2v307l129 -131q139 86 303 86q254 0 405 -167q133 -152 132.5 -369t-142.5 -377t-395 -162h536v-61z" />
    <glyph glyph-name="hamcirclel" unicode="&#xe096;" 
d="M104 522h-61v1075h61v-1075zM1186 1059q0 -225 -144 -379q-154 -160 -402 -158t-391 162q-142 160 -142.5 377t142.5 377t396 159q178 0 309 -88l133 133v-303h-311l131 131q-117 68 -262 66q-225 -4 -353 -146t-128 -332q0 -188 126 -328t344 -146t354 134t136 341h62z
" />
    <glyph glyph-name="hamcircler" unicode="&#xe097;" 
d="M104 522h-61v1075h61v-538h62q0 -201 136 -341t354 -134t344 145t126 329t-128 332t-353 146q-156 2 -266 -72l133 -131h-303v314l131 -134q131 84 305 84q255 1 397 -159t142 -377t-142 -377t-392 -162q-249 -2 -397 155t-149 382v-537z" />
    <glyph glyph-name="hamcircleul" unicode="&#xe098;" 
d="M250 657q0 -27 26 -26q55 1 179 75t261.5 211.5t210.5 259.5t72 177q0 27 -26 26q-49 0 -161 -66t-226 -181v-224l-109 109q-117 -115 -176 -225q-51 -87 -51 -136zM269 565q-85 0 -85 86q0 156 232 428l-113 113h221q285 254 455 254q86 0 86 -85t-83 -220t-220 -272.5
t-272.5 -220.5t-220.5 -83z" />
    <glyph glyph-name="hamcircledr" unicode="&#xe099;" 
d="M973 1380q-49 0 -135 -51q-111 -59 -226 -176l109 -109h-223q-116 -115 -182 -226t-66 -161q0 -27 26 -26q55 1 177 73t259.5 209.5t212.5 261.5t74 179q1 26 -26 26zM1065 1361q0 -85 -83 -220t-220 -272.5t-272.5 -220.5t-220.5 -83t-85 86q0 170 254 455v221l113 -113
q272 231 428 232q86 0 86 -85z" />
    <glyph glyph-name="hamcircleur" unicode="&#xe09a;" 
d="M276 1380q-27 0 -26 -26q0 -55 74 -179t212 -261.5t260 -210.5t177 -72q27 0 26 26q-1 49 -67 161t-180 226h-224l109 109q-115 117 -225 176q-87 51 -136 51zM184 1361q0 85 86 85q156 0 428 -232l113 113v-221q254 -285 254 -455q0 -86 -85 -86t-220 83t-272.5 220.5
t-220.5 272.5t-83 220z" />
    <glyph glyph-name="hamcircledl" unicode="&#xe09b;" 
d="M999 657q0 49 -51 136q-59 111 -176 225l-108 -109v224q-115 115 -236 184q-102 63 -152 63q-27 0 -26 -26q0 -55 72 -177t210 -259.5t262 -212.5t179 -74q26 -1 26 26zM1065 651q0 -86 -85 -86t-220 83t-272.5 220.5t-220.5 272.5t-83 220t86 85q170 0 455 -254h221
l-112 -113q231 -272 231 -428z" />
    <glyph glyph-name="hamcircleol" unicode="&#xe09c;" 
d="M238 657q0 -27 26 -26q55 1 179 75t261.5 211.5t210.5 259.5t72 177q0 27 -26 26q-49 0 -161 -66t-227 -181v-224l-108 109q-117 -115 -176 -225q-51 -87 -51 -136zM257 565q-85 0 -85 86q0 156 231 428l-112 113h221q285 254 455 254q86 0 86 -85t-83 -220
t-220.5 -272.5t-272.5 -220.5t-220 -83zM1143 502h-1053v61h1053v-61z" />
    <glyph glyph-name="hamcircleir" unicode="&#xe09d;" 
d="M967 1380q-49 0 -136 -51q-111 -59 -225 -176l109 -109h-223q-116 -115 -182 -226t-66 -161q0 -27 26 -26q55 1 177 73t259.5 209.5t212.5 261.5t74 179q1 26 -26 26zM1059 1361q0 -85 -83 -220t-220.5 -272.5t-272.5 -220.5t-220 -83t-85 86q0 170 254 455v221l113 -113
q272 231 428 232q86 0 86 -85zM1145 502h-1053v61h1053v-61z" />
    <glyph glyph-name="hamcircleor" unicode="&#xe09e;" 
d="M272 1380q-27 0 -26 -26q0 -55 74 -179t212 -261.5t260 -210.5t177 -72q27 0 26 26q-1 49 -67 161t-180 226h-224l109 109q-115 117 -225 176q-87 51 -136 51zM180 1361q0 85 86 85q156 0 428 -232l113 113v-221q254 -285 254 -455q0 -86 -85 -86t-220 83t-272.5 220.5
t-220.5 272.5t-83 220zM1145 502h-1053v61h1053v-61z" />
    <glyph glyph-name="hamcircleil" unicode="&#xe09f;" 
d="M999 657q0 49 -51 136q-59 111 -176 225l-108 -109v224q-115 115 -236 184q-102 63 -152 63q-27 0 -26 -26q0 -55 72 -177t210 -259.5t262 -212.5t179 -74q26 -1 26 26zM1065 651q0 -86 -85 -86t-220 83t-272.5 220.5t-220.5 272.5t-83 220t86 85q170 0 455 -254h221
l-112 -113q231 -272 231 -428zM1143 502h-1053v61h1053v-61z" />
    <glyph glyph-name="hamcircleui" unicode="&#xe0a0;" 
d="M293 657q0 -27 26 -26q55 1 179 75t261.5 211.5t210.5 259.5t72 177q0 27 -26 26q-49 0 -161 -66t-226 -181v-224l-109 109q-117 -115 -176 -225q-51 -87 -51 -136zM225 524h-61v1073h61v-1073zM312 565q-85 0 -85 86q0 156 232 428l-113 113h221q285 254 455 254
q86 0 86 -85t-83 -220t-220 -272.5t-272.5 -220.5t-220.5 -83z" />
    <glyph glyph-name="hamcircledo" unicode="&#xe0a1;" 
d="M1016 1380q-49 0 -135 -51q-111 -59 -226 -176l109 -109h-223q-115 -115 -181 -226t-67 -161q0 -27 26 -26q55 1 177 73t259.5 209.5t212.5 261.5t74 179q1 26 -26 26zM225 524h-61v1073h61v-1073zM1108 1361q0 -85 -83 -220t-220 -272.5t-272.5 -220.5t-220.5 -83
t-85 86q0 170 254 455v221l113 -113q272 231 428 232q86 0 86 -85z" />
    <glyph glyph-name="hamcircleuo" unicode="&#xe0a2;" 
d="M319 1380q-27 0 -26 -26q1 -55 75 -179t211.5 -261.5t259.5 -210.5t177 -72q27 0 26 26q0 49 -66 161t-181 226h-224l109 109q-115 117 -225 176q-87 51 -136 51zM225 524h-61v1073h61v-1073zM227 1361q0 85 86 85q156 0 428 -232l113 113v-221q254 -285 254 -455
q0 -86 -85 -86t-220 83t-272.5 220.5t-220.5 272.5t-83 220z" />
    <glyph glyph-name="hamcircledi" unicode="&#xe0a3;" 
d="M1042 657q0 49 -51 136q-59 111 -176 225l-108 -109v224q-115 115 -236 184q-102 63 -152 63q-27 0 -26 -26q1 -55 73 -177t209.5 -259.5t261.5 -212.5t179 -74q26 -1 26 26zM225 524h-61v1073h61v-1073zM1108 651q0 -86 -85 -86t-220 83t-272.5 220.5t-220.5 272.5
t-83 220t86 85q170 0 455 -254h221l-112 -113q231 -272 231 -428z" />
    <glyph glyph-name="hamfingerplay" unicode="&#xe0a4;" 
d="M158 1145q0 16 22 16q10 0 25 -4q76 -16 116 -54t64 -81q23 -43 31 -43t14 8t6 17.5t3 33.5t-19 176t-21 237q0 85 29 120q6 8 12 8q29 -1 56 -229t37 -248t31 -20t29.5 23t41.5 261t70 238q56 0 -5 -304q-36 -184 -38 -210t16 -29q18 -8 35 20q55 123 121 271t98 139
q12 -2 12 -39t-64 -211t-67 -191q-4 -16 1 -20q12 -8 28 12q44 70 104 157t111 116q14 4 14 -17q0 -52 -89 -250t-167 -366l-29 -66h-321l-19 72q-24 88 -156 259t-132 198z" />
    <glyph glyph-name="hamnodding" unicode="&#xe0a5;" 
d="M852 944v158h-829v74h829v155h-293l326 324l323 -324h-286v-387h286l-323 -323l-326 323h293z" />
    <glyph glyph-name="hamswinging" unicode="&#xe0a6;" 
d="M649 602h-78v633l-182 2v-311l-346 344l346 348v-311h442v311l353 -348l-353 -344v311l-182 -2v-633z" />
    <glyph glyph-name="hamtwisting" unicode="&#xe0a7;" 
d="M946 1393h-174l213 215l213 -215h-174q0 -160 -106.5 -276t-262.5 -132v-383h-77v383q-158 12 -265.5 130.5t-107.5 277.5h-174l213 215l213 -215h-174q0 -130 85.5 -224t209.5 -106v358h77v-358q125 16 208 110.5t83 219.5z" />
    <glyph glyph-name="hamstircw" unicode="&#xe0a8;" 
d="M612 1655q141 0 238 -109l100 101v-269h-274l100 101q-70 75 -162 75t-161.5 -67.5t-69.5 -162.5t69.5 -162.5t168.5 -67.5q10 0 32 4v-459h-94v352q-121 16 -200.5 110.5t-79.5 226.5t96 229.5t237 97.5z" />
    <glyph glyph-name="hamstirccw" unicode="&#xe0a9;" 
d="M617 1655q141 0 237 -97.5t96 -229.5t-79.5 -226t-200.5 -111v-352h-95v459q23 -4 33 -4q98 0 168 67.5t70 162.5t-70 162.5t-162 67.5t-161 -75l100 -101h-274v269l100 -101q97 109 238 109z" />
    <glyph glyph-name="hamreplace" unicode="&#xe0aa;" 
d="M1143 819l-277 -274l-43 43l199 198l-647 2l-246 -245l-43 43l233 233l-233 234l43 43l246 -246h651l-203 205l43 43z" />
    <glyph glyph-name="hammovecross" unicode="&#xe0ad;" 
d="M614 715h183l-211 -213l-213 213h182v317h-471v60h471v274l-186 188l43 43l174 -172l172 172l45 -43l-189 -188v-274h318v182l213 -211l-213 -213v182h-318v-317z" />
    <glyph glyph-name="hammoveX" unicode="&#xe0ae;" 
d="M143 655v389l172 -172l254 254l-426 426l45 45l426 -426l164 164v262h62v-245h245v-62h-262l-164 -164l254 -254l172 172v-389h-389l172 172l-254 254l-254 -254l172 -172h-389z" />
    <glyph glyph-name="hamnomotion" unicode="&#xe0af;" 
d="M614 608l451 453l-203 205l-454 -453zM367 856l452 453l-205 202l-450 -450zM78 567l246 246l-246 248l536 536l248 -245l246 245l43 -43l-246 -245l246 -248l-537 -537l-247 246l-246 -246z" />
    <glyph glyph-name="hamclocku" unicode="&#xe0b0;" horiz-adv-x="1146" 
d="M889 947q0 124 -78 212t-193 105v-121h-83v121q-119 -14 -198 -104.5t-79 -215.5t93 -216t223 -91t222.5 93t92.5 217zM963 945q0 -155 -115 -268.5t-274.5 -113.5t-274.5 113.5t-115 269.5t101.5 265.5t249.5 125.5v140h83v-140q145 -16 245 -126.5t100 -265.5z" />
    <glyph glyph-name="hamclockul" unicode="&#xe0b1;" horiz-adv-x="1146" 
d="M586 1266q-118 0 -201 -62l86 -86l-59 -59l-86 86q-66 -86 -66 -206t91 -212t222 -92t223.5 94t92.5 224t-92.5 221.5t-210.5 91.5zM575.5 563q-161.5 0 -274.5 114t-113 263t86 256l-98 98l60 60l98 -99q104 84 252 84t262.5 -113.5t114.5 -275.5t-113 -274.5
t-274.5 -112.5z" />
    <glyph glyph-name="hamclockl" unicode="&#xe0b2;" horiz-adv-x="1146" 
d="M889 953q0 130 -93.5 222.5t-217.5 92.5t-211.5 -78t-104.5 -193h121v-84h-121q14 -119 105 -197.5t215 -78.5t215.5 93t91.5 223zM963 952.5q0 -159.5 -114 -274.5t-270 -115t-265 101.5t-126 248.5h-139v84h139q16 145 127 244.5t265 99.5t268.5 -114.5t114.5 -274z
" />
    <glyph glyph-name="hamclockdl" unicode="&#xe0b3;" horiz-adv-x="1146" 
d="M887 948q0 131 -94.5 223.5t-224.5 92.5t-221 -92t-91 -210t61 -202l86 86l60 -60l-86 -86q85 -66 205 -66t212.5 91.5t92.5 222.5zM586 565q-150 0 -256 86l-99 -98l-59 59l98 99q-84 105 -84 253t114 261.5t275.5 113.5t274.5 -112.5t113 -274t-113.5 -274.5
t-263.5 -113z" />
    <glyph glyph-name="hamclockd" unicode="&#xe0b4;" horiz-adv-x="1146" 
d="M889 958q0 124 -92.5 217t-222.5 93t-223 -91.5t-93 -216.5t79 -215t198 -104v121h83v-121q115 16 193 104.5t78 212.5zM963 959q0 -155 -99.5 -265t-245.5 -127v-139h-83v139q-147 16 -249 125.5t-102 265.5t115 269.5t274.5 113.5t274.5 -113.5t115 -268.5z" />
    <glyph glyph-name="hamclockdr" unicode="&#xe0b5;" horiz-adv-x="1146" 
d="M887 966q0 120 -90.5 212t-222.5 92t-224 -94.5t-92 -224.5t92 -221t210 -91t202 61l-86 86l59 60l86 -86q66 86 66 206zM560 565q-149 0 -262.5 114t-113.5 275.5t113 274t274.5 112.5t274 -113.5t112.5 -263.5t-86 -255l99 -99l-60 -59l-98 98q-104 -84 -253 -84z" />
    <glyph glyph-name="hamclockr" unicode="&#xe0b6;" horiz-adv-x="1146" 
d="M764 915v84h121q-16 115 -104.5 193t-212.5 78t-217 -92.5t-93 -222.5t91 -223t216 -93t215.5 78.5t104.5 197.5h-121zM1098 915h-140q-16 -147 -125.5 -248.5t-265.5 -101.5t-269.5 115t-113.5 274.5t114 274t268 114.5t265 -99t127 -245h140v-84z" />
    <glyph glyph-name="hamclockur" unicode="&#xe0b7;" horiz-adv-x="1146" 
d="M560 1266q-120 0 -212 -91.5t-92 -222.5t94 -223t224 -92t221 92t91 210t-61 202l-86 -86l-59 59l86 86q-86 66 -206 66zM961 939q0 -149 -114 -262.5t-275.5 -113.5t-274.5 112.5t-113 274.5t114 274.5t263 112.5t256 -86l98 99l60 -60l-98 -98q84 -104 84 -253z" />
    <glyph glyph-name="hamclockfull" unicode="&#xe0b8;" horiz-adv-x="1146" 
d="M537 944v275q-111 -14 -186 -92.5t-89 -182.5h275zM537 870h-275q14 -111 92.5 -185.5t182.5 -88.5v274zM610 870v-274q111 14 185.5 92t89.5 182h-275zM610 944h275q-14 111 -92 185.5t-183 89.5v-275zM573.5 1294q159.5 0 273.5 -113.5t114 -273t-114 -273.5
t-273.5 -114t-273.5 114t-114 273.5t114 273t273.5 113.5z" />
    <glyph glyph-name="hamarcl" unicode="&#xe0b9;" 
d="M819 1587v-184q-39 18 -84 18q-100 0 -182 -73.5t-82 -170t82 -170t182 -73.5q45 0 84 18v-184q-168 0 -288.5 121t-120.5 290t120.5 288.5t288.5 119.5z" />
    <glyph glyph-name="hamarcu" unicode="&#xe0ba;" 
d="M846 1264q0 272 -231.5 272t-231.5 -270q0 -45 6 -78h-184q8 119 51 205q102 205 358 204.5t359 -204.5q43 -86 51 -205h-184q6 35 6 76z" />
    <glyph glyph-name="hamarcr" unicode="&#xe0bb;" 
d="M410 768v184q39 -18 84 -18q100 0 182 73.5t82 170t-82 170t-182 73.5q-45 0 -84 -18v184q170 0 289.5 -119.5t119.5 -288.5t-119.5 -290t-289.5 -121z" />
    <glyph glyph-name="hamarcd" unicode="&#xe0bc;" 
d="M614.5 1188q-256.5 0 -358.5 205q-43 86 -51 204h184q-6 -35 -6 -77q0 -270 231.5 -270.5t231.5 272.5q0 41 -6 75h184q-8 -119 -51 -204q-102 -205 -358.5 -205z" />
    <glyph glyph-name="hamwavy" unicode="&#xe0bd;" 
d="M751.5 1352q69.5 0 139.5 -109.5t137 -109.5q86 0 121 36t65 115l48 -53q-66 -154 -234 -160q-76 -2 -129 53q-15 14 -63 87t-90 73t-116.5 -109.5t-150.5 -109.5t-127 59q-35 53 -70.5 108.5t-80.5 53.5q-41 6 -86 -13.5t-101 -117.5l-47 33q37 86 74 115q51 45 160 45
q72 0 114 -60q33 -55 68 -110.5t90 -53.5t132 115t146.5 113z" />
    <glyph glyph-name="hamzigzag" unicode="&#xe0be;" 
d="M537 1147l-222 221l-200 -201l-66 66l266 266l222 -221l221 221l221 -221l135 135l66 -65l-201 -201l-221 221z" />
    <glyph glyph-name="hamellipseh" unicode="&#xe0c0;" 
d="M604 797q131 0 230.5 41t119.5 100h-680q20 -55 110 -98t220 -43zM623 1137q-128 0 -225 -40t-122 -98h676q-25 55 -113 97t-216 41zM614 1198q168 0 288 -67.5t120 -164t-120 -164t-288 -67.5t-287.5 67.5t-119.5 164t119.5 164t287.5 67.5z" />
    <glyph glyph-name="hamellipseur" unicode="&#xe0c1;" 
d="M885 1137q0 31 -11 53l-481 -481q23 -10 56 -11q135 0 285.5 150.5t150.5 288.5zM344 801q0 -27 8 -47l477 477q-23 8 -51 8q-135 0 -284.5 -149.5t-149.5 -288.5zM786 1300q74 0 117 -43t43 -116q0 -166 -169 -334t-335 -168q-74 0 -116.5 43t-42.5 117
q0 166 168.5 333.5t334.5 167.5z" />
    <glyph glyph-name="hamellipsev" unicode="&#xe0c2;" 
d="M784 956q0 132 -41 231t-100 120v-680q55 20 98 109q43 88 43 220zM444 976q0 -128 40 -225.5t98 -121.5v676q-54 -25 -96 -113t-42 -216zM383 967q0 168 67.5 287.5t164 119.5t164 -119.5t67.5 -287.5t-67.5 -288t-164 -120t-164 120t-67.5 288z" />
    <glyph glyph-name="hamellipseul" unicode="&#xe0c3;" 
d="M344 1133q0 -135 150.5 -286t287.5 -151q31 0 54 11l-482 481q-10 -23 -10 -55zM446 1237q-27 0 -47 -8l478 -477q8 23 8 51q0 135 -150 284.5t-289 149.5zM946 795q0 -74 -43 -117t-117 -43q-166 0 -333.5 169t-167.5 335q0 74 43 116.5t116 42.5q166 0 334 -168.5
t168 -334.5z" />
    <glyph glyph-name="hamincreasing" unicode="&#xe0c4;" 
d="M1137 584v-62h-1045v62l1045 602v-70l-922 -532h922z" />
    <glyph glyph-name="hamdecreasing" unicode="&#xe0c5;" 
d="M1137 522h-1045v62h922l-922 532v70l1045 -602v-62z" />
    <glyph glyph-name="hamsmallmod" unicode="&#xe0c6;" horiz-adv-x="0" 
d="M-601 49q50 0 86 36t36 86t-36 86t-86 36t-86 -36t-36 -86t36 -86t86 -36zM-778 171q0 73 52 125t125 52t125 -52t52 -125t-52 -125t-125 -52t-125 52t-52 125z" />
    <glyph glyph-name="hamlargemod" unicode="&#xe0c7;" horiz-adv-x="0" 
d="M-799 175q0 73 52.5 125t124.5 52t125 -52t53 -125t-52.5 -125t-125.5 -52t-125 52t-52 125z" />
    <glyph glyph-name="hamfast" unicode="&#xe0c8;" horiz-adv-x="1024" 
d="M469 1455q0 73 48 73t48 -76t-41 -199q152 160 215 160q31 0 31 -31q0 -67 -228 -148q16 -1 124 -44t108 -88t-41 -45q-68 0 -209 151q45 -146 45 -208t-49 -62q-55 0 -55 79t39 191q-139 -143 -211 -143q-43 0 -43 39q0 65 239 124q-15 0 -127 52t-112 96q0 35 37 35
q63 0 217 -158q-35 129 -35 202z" />
    <glyph glyph-name="hamslow" unicode="&#xe0c9;" horiz-adv-x="1024" 
d="M983 1311v-62h-942v62h942z" />
    <glyph glyph-name="hamtense" unicode="&#xe0ca;" horiz-adv-x="1024" 
d="M513 1331q165 0 265 127l45 -45q-127 -102 -127 -266t127 -266l-45 -45q-102 127 -266 127t-266 -127l-45 45q127 102 127 266t-127 266l45 45q102 -127 267 -127z" />
    <glyph glyph-name="hamrest" unicode="&#xe0cb;" horiz-adv-x="1024" 
d="M375 1290q-51 0 -87 36t-36 87t36 87t87 36q98 0 121 -92l278 82l-317 -676h-78l276 582l-159 -50q-23 -92 -121 -92z" />
    <glyph glyph-name="hamhalt" unicode="&#xe0cc;" horiz-adv-x="1024" 
d="M555 676h-61v921h61v-921zM309 676h-61v921h61v-921z" />
    <glyph glyph-name="hamclose" unicode="&#xe0d0;" 
d="M829 1126.5q0 -329.5 297 -471.5q-174 33 -281.5 163t-107.5 308.5t107.5 308.5t281.5 162q-297 -141 -297 -470.5zM399 1126.5q0 329.5 -297 470.5q174 -33 282 -162.5t108 -308t-108 -308.5t-282 -163q297 142 297 471.5z" />
    <glyph glyph-name="hamtouch" unicode="&#xe0d1;" 
d="M676 1126q0 -313 266 -471q-86 10 -199 82q-80 51 -129 152q-72 -119 -129 -152q-113 -72 -198 -82q266 158 266 471.5t-266 470.5q85 -9 198 -81q80 -51 129 -152q49 100 129 152q113 72 199 81q-266 -158 -266 -471z" />
    <glyph glyph-name="haminterlock" unicode="&#xe0d2;" 
d="M512 1128q0 -176 102 -305q102 129 102 302t-102 305q-102 -126 -102 -302zM809 1127q0 -205 -154 -349q102 -96 246 -123q-158 -2 -287 90q-133 -92 -286 -90q145 29 245 125q-154 139 -153.5 346t153.5 347q-96 96 -245 124q156 2 286 -92q125 94 283 92
q-143 -31 -242 -122q154 -143 154 -348z" />
    <glyph glyph-name="hamcross" unicode="&#xe0d3;" 
d="M1024 688l-408 408l-407 -408l-49 49l407 408l-407 407l45 45l407 -407l408 407l49 -49l-407 -407l407 -408z" />
    <glyph glyph-name="hamarmextended" unicode="&#xe0d4;" horiz-adv-x="1433" 
d="M639 229q-117 0 -166 50q-80 80 -80 165v164q0 66 -26.5 92.5t-96.5 30.5h-237v62h237q111 4 144 -29q33 -32 37 -60t4 -96v-164q0 -55 37.5 -97t75.5 -49t71 -7h276l-245 246h112l246 -246h232l-246 246h112l277 -277l-277 -276h-112l246 245h-232l-246 -245h-112
l245 245h-276z" />
    <glyph glyph-name="hambehind" unicode="&#xe0d5;" horiz-adv-x="1433" 
d="M836 492h-62v696h62v-696zM180 1024v446l66 -65v-266l295 295q92 92 264 99t311 -122t131 -303t-108 -274l-45 -46l-45 43l45 46q88 89 94 235t-116 255.5t-281 105.5q-121 -4 -203 -87l-301 -301h276l62 -61h-445z" />
    <glyph glyph-name="hambrushing" unicode="&#xe0d6;" horiz-adv-x="716" 
d="M545 856q0 -68 -42 -120t-106 -66l2 -369h-75v371q-66 12 -110 64t-44 121t44 121t112 64l-2 365h75v-371q146 -26 146 -180z" />
    <glyph glyph-name="hamrepeatfromstart" unicode="&#xe0d8;" horiz-adv-x="1433" 
d="M246 1096v61h440v440h62v-440h440v-61h-440v-441h-62v441h-440z" />
    <glyph glyph-name="hamrepeatfromstartseveral" unicode="&#xe0d9;" horiz-adv-x="1433" 
d="M543 1157h348v440h61v-440h318v-61h-318v-441h-61v441h-348v-441h-62v441h-317v61h317v440h62v-440z" />
    <glyph glyph-name="hamrepeatcontinue" unicode="&#xe0da;" horiz-adv-x="1433" 
d="M532 1096v-441h-61v441h-195v61h195v440h61v-440h508l-231 232v88l348 -349l-348 -350v88l229 230h-506z" />
    <glyph glyph-name="hamrepeatcontinueseveral" unicode="&#xe0db;" horiz-adv-x="1433" 
d="M676 655v439l-348 2v-441h-62v441h-194v61h194v440h62v-440h348v440h61l2 -440h504l-221 223v90l340 -344l-348 -350v88l229 230h-504l-2 -439h-61z" />
    <glyph glyph-name="hamrepeatreverse" unicode="&#xe0dc;" horiz-adv-x="1433" 
d="M903 1157v440h62v-440h194v-61h-194v-441h-62v441h-510l232 -232v-88l-351 350l349 351v-88l-228 -232h508z" />
    <glyph glyph-name="hamalternatingmotion" unicode="&#xe0dd;" horiz-adv-x="1433" 
d="M492 1434q82 0 165 -80q68 -74 138 -148q80 -80 147 -80q104 0 194.5 91.5t112.5 216.5h62q-16 -154 -120 -261.5t-249 -107.5q-90 0 -180 80q-70 75 -142 151t-128 76q-121 0 -202 -87t-106 -220h-61q16 156 119 262.5t250 106.5z" />
    <glyph glyph-name="hamseqbegin" unicode="&#xe0e0;" horiz-adv-x="512" 
d="M184 1331v-409q0 -88 52 -142q39 -37 83 -48t70 -15v-62q-68 0 -135 33q-131 68 -131 234v409q0 248 266 266v-61q-29 -6 -73 -18t-80 -52q-52 -51 -52 -135z" />
    <glyph glyph-name="hamseqend" unicode="&#xe0e1;" horiz-adv-x="512" 
d="M328 1331q0 84 -52 135q-37 40 -81 52t-72 18v61q266 -18 266 -266v-409q0 -166 -131 -234q-66 -33 -135 -33v62q27 4 71 15t82 48q51 53 52 142v409z" />
    <glyph glyph-name="hamparbegin" unicode="&#xe0e2;" horiz-adv-x="512" 
d="M133 655v942h246v-61h-184v-819h184v-62h-246z" />
    <glyph glyph-name="hamparend" unicode="&#xe0e3;" horiz-adv-x="512" 
d="M379 655h-246v62h184v819h-184v61h246v-942z" />
    <glyph glyph-name="hamfusionbegin" unicode="&#xe0e4;" horiz-adv-x="512" 
d="M319 1599l68 3l-186 -474l186 -471h-68l-194 469z" />
    <glyph glyph-name="hamfusionend" unicode="&#xe0e5;" horiz-adv-x="512" 
d="M387 1126l-194 -469h-68l186 471l-186 474l68 -3z" />
    <glyph glyph-name="hambetween" unicode="&#xe0e6;" horiz-adv-x="972" 
d="M111 1180l733 -1180h-90l-734 1180h91z" />
    <glyph glyph-name="hamplus" unicode="&#xe0e7;" horiz-adv-x="921" 
d="M743 61v-61h-299l-225 -227l-43 43l182 184h-182v61h242l282 277l45 -43l-237 -234h235z" />
    <glyph glyph-name="hamsymmpar" unicode="&#xe0e8;" horiz-adv-x="1433" 
d="M768 1434q49 0 75.5 -31t26.5 -72t-26.5 -71.5t-75.5 -30.5t-75.5 30.5t-26.5 71.5t26.5 72t75.5 31zM768 1167q49 0 75.5 -30.5t26.5 -71.5t-26.5 -71.5t-75.5 -30.5t-75.5 30.5t-26.5 71.5t26.5 71.5t75.5 30.5z" />
    <glyph glyph-name="hamsymmlr" unicode="&#xe0e9;" horiz-adv-x="1433" 
d="M854 1167q49 0 75.5 -30.5t26.5 -71.5t-26.5 -71.5t-75.5 -30.5t-75.5 30.5t-26.5 71.5t26.5 71.5t75.5 30.5zM588 1167q49 0 75.5 -30.5t26.5 -71.5t-26.5 -71.5t-75.5 -30.5t-76 30.5t-27 71.5t27 71.5t76 30.5z" />
    <glyph glyph-name="hamnondominant" unicode="&#xe0ea;" horiz-adv-x="1404" 
d="M125 655q0 217 154.5 374t367.5 149q244 -10 391 -179l179 181l45 -45l-189 -189q86 -117 96 -278v-668h-1040l-84 -82l-45 45l125 127v565zM1108 61v594q0 8 -1 37.5t-31 95.5t-62 99l-824 -826h918zM647 1116q-190 0 -325.5 -135t-135.5 -326v-503l795 792
q-51 68 -142 120t-192 52z" />
    <glyph glyph-name="hamnonipsi" unicode="&#xe0eb;" horiz-adv-x="921" 
d="M311 1306q0 -56 72 -98t203 -39v273q-129 2 -202 -39t-73 -97zM647 819h-61v273l-275 -273h-84l289 291q-78 2 -156 39q-111 53 -114 154q4 98 101 148t239 46l61 2v-680z" />
    <glyph glyph-name="hametc" unicode="&#xe0ec;" horiz-adv-x="0" 
d="M-868 -137q0 -39 -29 -67.5t-68 -28.5t-67.5 28.5t-28.5 67.5t28.5 67.5t67.5 28.5t68 -28.5t29 -67.5zM-602 -137q0 -39 -28.5 -67.5t-67.5 -28.5t-68 28.5t-29 67.5t29 67.5t68 28.5t67.5 -28.5t28.5 -67.5zM-342 -137q0 -39 -28.5 -67.5t-67.5 -28.5t-68 28.5
t-29 67.5t29 67.5t68 28.5t67.5 -28.5t28.5 -67.5z" />
    <glyph glyph-name="hamorirelative" unicode="&#xe0ed;" horiz-adv-x="0" 
d="M-340 -250q-64 0 -134.5 56.5t-98.5 56.5q-61 0 -83 -22.5t-38 -90.5h-64q8 78 59 131t113 53t130.5 -56t107.5 -56q92 0 112 112h72q-8 -78 -60 -131t-116 -53z" />
    <glyph glyph-name="hammime" unicode="&#xe0f0;" horiz-adv-x="1501" 
d="M82 1536v-922q0 -229 162 -391t391 -162t391 162t162 391v922h-1106zM20 614v983h1229v-983q0 -254 -180 -434t-434 -180t-434.5 180t-180.5 434z" />
    <glyph glyph-name="hamversion40" unicode="&#xe0f1;" horiz-adv-x="1024" 
d="M135 98h819v-71h-819v71zM375 348v180l-123 -180h123zM725 633l25 -31v-354l-25 -31v416zM457 324h-58v-107h-24v107h-172l196 286v-262h58v-24zM621 219h-70v70h70v-70z" />
    <glyph glyph-name="ligpointsymmetry" horiz-adv-x="1921" 
d="M1094 1167q50 -1 76 -31t26 -71t-27 -72t-75 -31t-76 32q-27 30 -27 71t27 71t76 31zM827 1167q49 -1 76 -31t27 -71t-27 -72t-76 -31t-75 32q-26 30 -27 71q1 41 27 71t75 31zM1374 1530h-819v61h819v-61zM352 542q0 46 33 79t80 33t79 -33t34 -79q0 -46 -34 -80
q-34 -33 -79 -33q-46 0 -80 33q-33 34 -33 80z" />
  </font>
</defs>
</svg>
